<svg version="1.1" viewBox="0.0 0.0 960.0 720.0" fill="none" stroke="none" stroke-linecap="square" stroke-miterlimit="10" xmlns:xlink="http://www.w3.org/1999/xlink" xmlns="http://www.w3.org/2000/svg"><clipPath id="p.0"><path d="m0 0l960.0 0l0 720.0l-960.0 0l0 -720.0z" clip-rule="nonzero"/></clipPath><g clip-path="url(#p.0)"><path fill="#000000" fill-opacity="0.0" d="m0 0l960.0 0l0 720.0l-960.0 0z" fill-rule="evenodd"/><path fill="#cfe2f3" d="m391.64304 181.60104l0 0c0 -13.167847 15.603058 -23.842514 34.850403 -23.842514l0 0c19.247345 0 34.850403 10.674667 34.850403 23.842514l0 0c0 13.167862 -15.603058 23.84253 -34.850403 23.84253l0 0c-19.247345 0 -34.850403 -10.674667 -34.850403 -23.84253z" fill-rule="evenodd"/><path stroke="#000000" stroke-width="1.0" stroke-linejoin="round" stroke-linecap="butt" d="m391.64304 181.60104l0 0c0 -13.167847 15.603058 -23.842514 34.850403 -23.842514l0 0c19.247345 0 34.850403 10.674667 34.850403 23.842514l0 0c0 13.167862 -15.603058 23.84253 -34.850403 23.84253l0 0c-19.247345 0 -34.850403 -10.674667 -34.850403 -23.84253z" fill-rule="evenodd"/><path fill="#000000" d="m415.86966 186.40105l0 -6.90625l1.0625 0l0 1.046875q0.40625 -0.734375 0.734375 -0.96875q0.34375 -0.234375 0.765625 -0.234375q0.59375 0 1.203125 0.375l-0.40625 1.078125q-0.4375 -0.25 -0.859375 -0.25q-0.390625 0 -0.703125 0.234375q-0.296875 0.234375 -0.421875 0.640625q-0.203125 0.625 -0.203125 1.359375l0 3.625l-1.171875 0zm4.0164795 -3.453125q0 -1.921875 1.078125 -2.84375q0.890625 -0.765625 2.171875 -0.765625q1.421875 0 2.328125 0.9375q0.90625 0.921875 0.90625 2.578125q0 1.328125 -0.40625 2.09375q-0.390625 0.765625 -1.15625 1.1875q-0.765625 0.421875 -1.671875 0.421875q-1.453125 0 -2.359375 -0.921875q-0.890625 -0.9375 -0.890625 -2.6875zm1.203125 0q0 1.328125 0.578125 1.984375q0.59375 0.65625 1.46875 0.65625q0.875 0 1.453125 -0.65625q0.578125 -0.671875 0.578125 -2.03125q0 -1.28125 -0.59375 -1.9375q-0.578125 -0.65625 -1.4375 -0.65625q-0.875 0 -1.46875 0.65625q-0.578125 0.65625 -0.578125 1.984375zm6.2093506 0q0 -1.921875 1.078125 -2.84375q0.890625 -0.765625 2.171875 -0.765625q1.421875 0 2.328125 0.9375q0.90625 0.921875 0.90625 2.578125q0 1.328125 -0.40625 2.09375q-0.390625 0.765625 -1.15625 1.1875q-0.765625 0.421875 -1.671875 0.421875q-1.453125 0 -2.359375 -0.921875q-0.890625 -0.9375 -0.890625 -2.6875zm1.203125 0q0 1.328125 0.578125 1.984375q0.59375 0.65625 1.46875 0.65625q0.875 0 1.453125 -0.65625q0.578125 -0.671875 0.578125 -2.03125q0 -1.28125 -0.59375 -1.9375q-0.578125 -0.65625 -1.4375 -0.65625q-0.875 0 -1.46875 0.65625q-0.578125 0.65625 -0.578125 1.984375zm9.209381 2.40625l0.171875 1.03125q-0.5 0.109375 -0.890625 0.109375q-0.640625 0 -1.0 -0.203125q-0.34375 -0.203125 -0.484375 -0.53125q-0.140625 -0.328125 -0.140625 -1.390625l0 -3.96875l-0.859375 0l0 -0.90625l0.859375 0l0 -1.71875l1.171875 -0.703125l0 2.421875l1.171875 0l0 0.90625l-1.171875 0l0 4.046875q0 0.5 0.046875 0.640625q0.0625 0.140625 0.203125 0.234375q0.140625 0.078125 0.40625 0.078125q0.203125 0 0.515625 -0.046875z" fill-rule="nonzero"/><path fill="#cfe2f3" d="m306.43307 258.18896l0 0c0 -10.88913 8.418457 -19.716522 18.803131 -19.716522l0 0c4.986908 0 9.769562 2.0772705 13.295837 5.7748413c3.5262756 3.6975708 5.507324 8.71254 5.507324 13.941681l0 0c0 10.88916 -8.418457 19.716553 -18.803162 19.716553l0 0c-10.384674 0 -18.803131 -8.827393 -18.803131 -19.716553z" fill-rule="evenodd"/><path stroke="#000000" stroke-width="1.0" stroke-linejoin="round" stroke-linecap="butt" d="m306.43307 258.18896l0 0c0 -10.88913 8.418457 -19.716522 18.803131 -19.716522l0 0c4.986908 0 9.769562 2.0772705 13.295837 5.7748413c3.5262756 3.6975708 5.507324 8.71254 5.507324 13.941681l0 0c0 10.88916 -8.418457 19.716553 -18.803162 19.716553l0 0c-10.384674 0 -18.803131 -8.827393 -18.803131 -19.716553z" fill-rule="evenodd"/><path fill="#000000" d="m327.89352 265.10898l-1.640625 0l0 -10.453125q-0.59375 0.5625 -1.5625 1.140625q-0.953125 0.5625 -1.71875 0.84375l0 -1.59375q1.375 -0.640625 2.40625 -1.5625q1.03125 -0.921875 1.453125 -1.78125l1.0625 0l0 13.40625z" fill-rule="nonzero"/><path fill="#cfe2f3" d="m407.69028 258.18896l0 0c0 -10.88913 8.418457 -19.716522 18.803162 -19.716522l0 0c4.986908 0 9.769562 2.0772705 13.295837 5.7748413c3.5262756 3.6975708 5.507324 8.71254 5.507324 13.941681l0 0c0 10.88916 -8.418457 19.716553 -18.803162 19.716553l0 0c-10.384705 0 -18.803162 -8.827393 -18.803162 -19.716553z" fill-rule="evenodd"/><path stroke="#000000" stroke-width="1.0" stroke-linejoin="round" stroke-linecap="butt" d="m407.69028 258.18896l0 0c0 -10.88913 8.418457 -19.716522 18.803162 -19.716522l0 0c4.986908 0 9.769562 2.0772705 13.295837 5.7748413c3.5262756 3.6975708 5.507324 8.71254 5.507324 13.941681l0 0c0 10.88916 -8.418457 19.716553 -18.803162 19.716553l0 0c-10.384705 0 -18.803162 -8.827393 -18.803162 -19.716553z" fill-rule="evenodd"/><path fill="#000000" d="m431.58823 263.53085l0 1.578125l-8.828125 0q-0.015625 -0.59375 0.1875 -1.140625q0.34375 -0.90625 1.078125 -1.78125q0.75 -0.875 2.15625 -2.015625q2.171875 -1.78125 2.9375 -2.828125q0.765625 -1.046875 0.765625 -1.96875q0 -0.984375 -0.703125 -1.640625q-0.6875 -0.671875 -1.8125 -0.671875q-1.1875 0 -1.90625 0.71875q-0.703125 0.703125 -0.703125 1.953125l-1.6875 -0.171875q0.171875 -1.890625 1.296875 -2.875q1.140625 -0.984375 3.03125 -0.984375q1.921875 0 3.046875 1.0625q1.125 1.0625 1.125 2.640625q0 0.796875 -0.328125 1.578125q-0.328125 0.78125 -1.09375 1.640625q-0.75 0.84375 -2.53125 2.34375q-1.46875 1.234375 -1.890625 1.6875q-0.421875 0.4375 -0.6875 0.875l6.546875 0z" fill-rule="nonzero"/><path fill="#cfe2f3" d="m508.9475 258.18896l0 0c0 -10.88913 8.418457 -19.716522 18.803162 -19.716522l0 0c4.9868774 0 9.769531 2.0772705 13.295837 5.7748413c3.526245 3.6975708 5.507324 8.71254 5.507324 13.941681l0 0c0 10.88916 -8.418457 19.716553 -18.803162 19.716553l0 0c-10.384705 0 -18.803162 -8.827393 -18.803162 -19.716553z" fill-rule="evenodd"/><path stroke="#000000" stroke-width="1.0" stroke-linejoin="round" stroke-linecap="butt" d="m508.9475 258.18896l0 0c0 -10.88913 8.418457 -19.716522 18.803162 -19.716522l0 0c4.9868774 0 9.769531 2.0772705 13.295837 5.7748413c3.526245 3.6975708 5.507324 8.71254 5.507324 13.941681l0 0c0 10.88916 -8.418457 19.716553 -18.803162 19.716553l0 0c-10.384705 0 -18.803162 -8.827393 -18.803162 -19.716553z" fill-rule="evenodd"/><path fill="#000000" d="m524.2361 261.57773l1.640625 -0.21875q0.28125 1.40625 0.953125 2.015625q0.6875 0.609375 1.65625 0.609375q1.15625 0 1.953125 -0.796875q0.796875 -0.796875 0.796875 -1.984375q0 -1.125 -0.734375 -1.859375q-0.734375 -0.734375 -1.875 -0.734375q-0.46875 0 -1.15625 0.171875l0.1875 -1.4375q0.15625 0.015625 0.265625 0.015625q1.046875 0 1.875 -0.546875q0.84375 -0.546875 0.84375 -1.671875q0 -0.90625 -0.609375 -1.5q-0.609375 -0.59375 -1.578125 -0.59375q-0.953125 0 -1.59375 0.609375q-0.640625 0.59375 -0.8125 1.796875l-1.640625 -0.296875q0.296875 -1.640625 1.359375 -2.546875q1.0625 -0.90625 2.65625 -0.90625q1.09375 0 2.0 0.46875q0.921875 0.46875 1.40625 1.28125q0.5 0.8125 0.5 1.71875q0 0.859375 -0.46875 1.578125q-0.46875 0.703125 -1.375 1.125q1.1875 0.28125 1.84375 1.140625q0.65625 0.859375 0.65625 2.15625q0 1.734375 -1.28125 2.953125q-1.265625 1.21875 -3.21875 1.21875q-1.765625 0 -2.921875 -1.046875q-1.15625 -1.046875 -1.328125 -2.71875z" fill-rule="nonzero"/><path fill="#cfe2f3" d="m218.79002 340.28348l0 0c0 -10.88916 8.418457 -19.716553 18.803146 -19.716553l0 0c4.986908 0 9.769562 2.0772705 13.295837 5.7748413c3.5262756 3.6975708 5.507324 8.712555 5.507324 13.941711l0 0c0 10.88913 -8.418457 19.716522 -18.803162 19.716522l0 0c-10.384689 0 -18.803146 -8.827393 -18.803146 -19.716522z" fill-rule="evenodd"/><path stroke="#000000" stroke-width="1.0" stroke-linejoin="round" stroke-linecap="butt" d="m218.79002 340.28348l0 0c0 -10.88916 8.418457 -19.716553 18.803146 -19.716553l0 0c4.986908 0 9.769562 2.0772705 13.295837 5.7748413c3.5262756 3.6975708 5.507324 8.712555 5.507324 13.941711l0 0c0 10.88913 -8.418457 19.716522 -18.803162 19.716522l0 0c-10.384689 0 -18.803146 -8.827393 -18.803146 -19.716522z" fill-rule="evenodd"/><path fill="#000000" d="m242.68797 345.62534l0 1.578125l-8.828125 0q-0.015625 -0.59375 0.1875 -1.140625q0.34375 -0.90625 1.078125 -1.78125q0.75 -0.875 2.15625 -2.015625q2.171875 -1.78125 2.9375 -2.828125q0.765625 -1.046875 0.765625 -1.96875q0 -0.984375 -0.703125 -1.640625q-0.6875 -0.671875 -1.8125 -0.671875q-1.1875 0 -1.90625 0.71875q-0.703125 0.703125 -0.703125 1.953125l-1.6875 -0.171875q0.171875 -1.890625 1.296875 -2.875q1.140625 -0.984375 3.03125 -0.984375q1.921875 0 3.046875 1.0625q1.125 1.0625 1.125 2.640625q0 0.796875 -0.328125 1.578125q-0.328125 0.78125 -1.09375 1.640625q-0.75 0.84375 -2.53125 2.34375q-1.46875 1.234375 -1.890625 1.6875q-0.421875 0.4375 -0.6875 0.875l6.546875 0z" fill-rule="nonzero"/><path fill="#cfe2f3" d="m287.98688 340.28348l0 0c0 -10.88916 8.418457 -19.716553 18.803162 -19.716553l0 0c4.9868774 0 9.769562 2.0772705 13.295807 5.7748413c3.5262756 3.6975708 5.507324 8.712555 5.507324 13.941711l0 0c0 10.88913 -8.418457 19.716522 -18.803131 19.716522l0 0c-10.384705 0 -18.803162 -8.827393 -18.803162 -19.716522z" fill-rule="evenodd"/><path stroke="#000000" stroke-width="1.0" stroke-linejoin="round" stroke-linecap="butt" d="m287.98688 340.28348l0 0c0 -10.88916 8.418457 -19.716553 18.803162 -19.716553l0 0c4.9868774 0 9.769562 2.0772705 13.295807 5.7748413c3.5262756 3.6975708 5.507324 8.712555 5.507324 13.941711l0 0c0 10.88913 -8.418457 19.716522 -18.803131 19.716522l0 0c-10.384705 0 -18.803162 -8.827393 -18.803162 -19.716522z" fill-rule="evenodd"/><path fill="#000000" d="m303.27545 343.6722l1.640625 -0.21875q0.28125 1.40625 0.953125 2.015625q0.6875 0.609375 1.65625 0.609375q1.15625 0 1.953125 -0.796875q0.796875 -0.796875 0.796875 -1.984375q0 -1.125 -0.734375 -1.859375q-0.734375 -0.734375 -1.875 -0.734375q-0.46875 0 -1.15625 0.171875l0.1875 -1.4375q0.15625 0.015625 0.265625 0.015625q1.046875 0 1.875 -0.546875q0.84375 -0.546875 0.84375 -1.671875q0 -0.90625 -0.609375 -1.5q-0.609375 -0.59375 -1.578125 -0.59375q-0.953125 0 -1.59375 0.609375q-0.640625 0.59375 -0.8125 1.796875l-1.640625 -0.296875q0.296875 -1.640625 1.359375 -2.546875q1.0625 -0.90625 2.65625 -0.90625q1.09375 0 2.0 0.46875q0.921875 0.46875 1.40625 1.28125q0.5 0.8125 0.5 1.71875q0 0.859375 -0.46875 1.578125q-0.46875 0.703125 -1.375 1.125q1.1875 0.28125 1.84375 1.140625q0.65625 0.859375 0.65625 2.15625q0 1.734375 -1.28125 2.953125q-1.265625 1.21875 -3.21875 1.21875q-1.765625 0 -2.921875 -1.046875q-1.15625 -1.046875 -1.328125 -2.71875z" fill-rule="nonzero"/><path fill="#cfe2f3" d="m386.53543 340.28348l0 0c0 -10.88916 8.418457 -19.716553 18.803162 -19.716553l0 0c4.986908 0 9.769562 2.0772705 13.295837 5.7748413c3.5262756 3.6975708 5.5072937 8.712555 5.5072937 13.941711l0 0c0 10.88913 -8.418457 19.716522 -18.803131 19.716522l0 0c-10.384705 0 -18.803162 -8.827393 -18.803162 -19.716522z" fill-rule="evenodd"/><path stroke="#ff0000" stroke-width="1.0" stroke-linejoin="round" stroke-linecap="butt" d="m386.53543 340.28348l0 0c0 -10.88916 8.418457 -19.716553 18.803162 -19.716553l0 0c4.986908 0 9.769562 2.0772705 13.295837 5.7748413c3.5262756 3.6975708 5.5072937 8.712555 5.5072937 13.941711l0 0c0 10.88913 -8.418457 19.716522 -18.803131 19.716522l0 0c-10.384705 0 -18.803162 -8.827393 -18.803162 -19.716522z" fill-rule="evenodd"/><path fill="#000000" d="m407.99588 347.20346l-1.640625 0l0 -10.453125q-0.59375 0.5625 -1.5625 1.140625q-0.953125 0.5625 -1.71875 0.84375l0 -1.59375q1.375 -0.640625 2.40625 -1.5625q1.03125 -0.921875 1.453125 -1.78125l1.0625 0l0 13.40625z" fill-rule="nonzero"/><path fill="#cfe2f3" d="m445.2966 340.28348l0 0c0 -10.88916 8.418457 -19.716553 18.803131 -19.716553l0 0c4.986908 0 9.769562 2.0772705 13.295837 5.7748413c3.5262756 3.6975708 5.507324 8.712555 5.507324 13.941711l0 0c0 10.88913 -8.418457 19.716522 -18.803162 19.716522l0 0c-10.384674 0 -18.803131 -8.827393 -18.803131 -19.716522z" fill-rule="evenodd"/><path stroke="#000000" stroke-width="1.0" stroke-linejoin="round" stroke-linecap="butt" d="m445.2966 340.28348l0 0c0 -10.88916 8.418457 -19.716553 18.803131 -19.716553l0 0c4.986908 0 9.769562 2.0772705 13.295837 5.7748413c3.5262756 3.6975708 5.507324 8.712555 5.507324 13.941711l0 0c0 10.88913 -8.418457 19.716522 -18.803162 19.716522l0 0c-10.384674 0 -18.803131 -8.827393 -18.803131 -19.716522z" fill-rule="evenodd"/><path fill="#000000" d="m460.58514 343.6722l1.640625 -0.21875q0.28125 1.40625 0.953125 2.015625q0.6875 0.609375 1.65625 0.609375q1.15625 0 1.953125 -0.796875q0.796875 -0.796875 0.796875 -1.984375q0 -1.125 -0.734375 -1.859375q-0.734375 -0.734375 -1.875 -0.734375q-0.46875 0 -1.15625 0.171875l0.1875 -1.4375q0.15625 0.015625 0.265625 0.015625q1.046875 0 1.875 -0.546875q0.84375 -0.546875 0.84375 -1.671875q0 -0.90625 -0.609375 -1.5q-0.609375 -0.59375 -1.578125 -0.59375q-0.953125 0 -1.59375 0.609375q-0.640625 0.59375 -0.8125 1.796875l-1.640625 -0.296875q0.296875 -1.640625 1.359375 -2.546875q1.0625 -0.90625 2.65625 -0.90625q1.09375 0 2.0 0.46875q0.921875 0.46875 1.40625 1.28125q0.5 0.8125 0.5 1.71875q0 0.859375 -0.46875 1.578125q-0.46875 0.703125 -1.375 1.125q1.1875 0.28125 1.84375 1.140625q0.65625 0.859375 0.65625 2.15625q0 1.734375 -1.28125 2.953125q-1.265625 1.21875 -3.21875 1.21875q-1.765625 0 -2.921875 -1.046875q-1.15625 -1.046875 -1.328125 -2.71875z" fill-rule="nonzero"/><path fill="#cfe2f3" d="m520.5486 334.72177l0 0c0 -10.88913 8.418457 -19.716522 18.8031 -19.716522l0 0c4.9869385 0 9.769592 2.0772705 13.295837 5.7748413c3.5263062 3.6975708 5.507324 8.712555 5.507324 13.941681l0 0c0 10.88916 -8.418457 19.716553 -18.803162 19.716553l0 0c-10.384644 0 -18.8031 -8.827393 -18.8031 -19.716553z" fill-rule="evenodd"/><path stroke="#ff0000" stroke-width="1.0" stroke-linejoin="round" stroke-linecap="butt" d="m520.5486 334.72177l0 0c0 -10.88913 8.418457 -19.716522 18.8031 -19.716522l0 0c4.9869385 0 9.769592 2.0772705 13.295837 5.7748413c3.5263062 3.6975708 5.507324 8.712555 5.507324 13.941681l0 0c0 10.88916 -8.418457 19.716553 -18.803162 19.716553l0 0c-10.384644 0 -18.8031 -8.827393 -18.8031 -19.716553z" fill-rule="evenodd"/><path fill="#000000" d="m542.009 341.64178l-1.640625 0l0 -10.453125q-0.59375 0.5625 -1.5625 1.140625q-0.953125 0.5625 -1.71875 0.84375l0 -1.59375q1.375 -0.640625 2.40625 -1.5625q1.03125 -0.921875 1.453125 -1.78125l1.0625 0l0 13.40625z" fill-rule="nonzero"/><path fill="#cfe2f3" d="m590.61945 340.28348l0 0c0 -10.88916 8.418457 -19.716553 18.8031 -19.716553l0 0c4.9869385 0 9.769592 2.0772705 13.295837 5.7748413c3.5263062 3.6975708 5.507324 8.712555 5.507324 13.941711l0 0c0 10.88913 -8.418457 19.716522 -18.803162 19.716522l0 0c-10.384644 0 -18.8031 -8.827393 -18.8031 -19.716522z" fill-rule="evenodd"/><path stroke="#ff0000" stroke-width="1.0" stroke-linejoin="round" stroke-linecap="butt" d="m590.61945 340.28348l0 0c0 -10.88916 8.418457 -19.716553 18.8031 -19.716553l0 0c4.9869385 0 9.769592 2.0772705 13.295837 5.7748413c3.5263062 3.6975708 5.507324 8.712555 5.507324 13.941711l0 0c0 10.88913 -8.418457 19.716522 -18.803162 19.716522l0 0c-10.384644 0 -18.8031 -8.827393 -18.8031 -19.716522z" fill-rule="evenodd"/><path fill="#000000" d="m614.51733 345.62534l0 1.578125l-8.828125 0q-0.015625 -0.59375 0.1875 -1.140625q0.34375 -0.90625 1.078125 -1.78125q0.75 -0.875 2.15625 -2.015625q2.171875 -1.78125 2.9375 -2.828125q0.765625 -1.046875 0.765625 -1.96875q0 -0.984375 -0.703125 -1.640625q-0.6875 -0.671875 -1.8125 -0.671875q-1.1875 0 -1.90625 0.71875q-0.703125 0.703125 -0.703125 1.953125l-1.6875 -0.171875q0.171875 -1.890625 1.296875 -2.875q1.140625 -0.984375 3.03125 -0.984375q1.921875 0 3.046875 1.0625q1.125 1.0625 1.125 2.640625q0 0.796875 -0.328125 1.578125q-0.328125 0.78125 -1.09375 1.640625q-0.75 0.84375 -2.53125 2.34375q-1.46875 1.234375 -1.890625 1.6875q-0.421875 0.4375 -0.6875 0.875l6.546875 0z" fill-rule="nonzero"/><path fill="#000000" fill-opacity="0.0" d="m401.8505 198.46025l-63.3071 45.795288" fill-rule="evenodd"/><path stroke="#000000" stroke-width="1.0" stroke-linejoin="round" stroke-linecap="butt" d="m401.85046 198.46027l-58.44568 42.278625" fill-rule="evenodd"/><path fill="#000000" stroke="#000000" stroke-width="1.0" stroke-linecap="butt" d="m342.4367 239.4006l-2.7088013 3.9980927l4.644989 -1.321518z" fill-rule="evenodd"/><path fill="#000000" fill-opacity="0.0" d="m325.2362 277.90552l-18.456665 42.677155" fill-rule="evenodd"/><path stroke="#000000" stroke-width="1.0" stroke-linejoin="round" stroke-linecap="butt" d="m325.2362 277.90552l-16.075043 37.170105" fill-rule="evenodd"/><path fill="#000000" stroke="#000000" stroke-width="1.0" stroke-linecap="butt" d="m307.64514 314.41998l-0.28530884 4.8208923l3.3173828 -3.509613z" fill-rule="evenodd"/><path fill="#cfe2f3" d="m144.79527 404.89764l0 0c0 -10.88916 8.418457 -19.716553 18.803146 -19.716553l0 0c4.986908 0 9.769562 2.0772705 13.295837 5.7748413c3.5262756 3.6975708 5.507324 8.712555 5.507324 13.941711l0 0c0 10.88913 -8.418457 19.716522 -18.803162 19.716522l0 0c-10.384689 0 -18.803146 -8.827393 -18.803146 -19.716522z" fill-rule="evenodd"/><path stroke="#ff0000" stroke-width="1.0" stroke-linejoin="round" stroke-linecap="butt" d="m144.79527 404.89764l0 0c0 -10.88916 8.418457 -19.716553 18.803146 -19.716553l0 0c4.986908 0 9.769562 2.0772705 13.295837 5.7748413c3.5262756 3.6975708 5.507324 8.712555 5.507324 13.941711l0 0c0 10.88913 -8.418457 19.716522 -18.803162 19.716522l0 0c-10.384689 0 -18.803146 -8.827393 -18.803146 -19.716522z" fill-rule="evenodd"/><path fill="#000000" d="m166.25572 411.81763l-1.640625 0l0 -10.453125q-0.59375 0.5625 -1.5625 1.140625q-0.953125 0.5625 -1.71875 0.84375l0 -1.59375q1.375 -0.640625 2.40625 -1.5625q1.03125 -0.921875 1.453125 -1.78125l1.0625 0l0 13.40625z" fill-rule="nonzero"/><path fill="#cfe2f3" d="m186.86351 404.89764l0 0c0 -10.88916 8.418457 -19.716553 18.803162 -19.716553l0 0c4.9868927 0 9.769562 2.0772705 13.295822 5.7748413c3.5262756 3.6975708 5.507324 8.712555 5.507324 13.941711l0 0c0 10.88913 -8.418457 19.716522 -18.803146 19.716522l0 0c-10.384705 0 -18.803162 -8.827393 -18.803162 -19.716522z" fill-rule="evenodd"/><path stroke="#000000" stroke-width="1.0" stroke-linejoin="round" stroke-linecap="butt" d="m186.86351 404.89764l0 0c0 -10.88916 8.418457 -19.716553 18.803162 -19.716553l0 0c4.9868927 0 9.769562 2.0772705 13.295822 5.7748413c3.5262756 3.6975708 5.507324 8.712555 5.507324 13.941711l0 0c0 10.88913 -8.418457 19.716522 -18.803146 19.716522l0 0c-10.384705 0 -18.803162 -8.827393 -18.803162 -19.716522z" fill-rule="evenodd"/><path fill="#000000" d="m202.15208 408.28638l1.640625 -0.21875q0.28125 1.40625 0.953125 2.015625q0.6875 0.609375 1.65625 0.609375q1.15625 0 1.953125 -0.796875q0.796875 -0.796875 0.796875 -1.984375q0 -1.125 -0.734375 -1.859375q-0.734375 -0.734375 -1.875 -0.734375q-0.46875 0 -1.15625 0.171875l0.1875 -1.4375q0.15625 0.015625 0.265625 0.015625q1.046875 0 1.875 -0.546875q0.84375 -0.546875 0.84375 -1.671875q0 -0.90625 -0.609375 -1.5q-0.609375 -0.59375 -1.578125 -0.59375q-0.953125 0 -1.59375 0.609375q-0.640625 0.59375 -0.8125 1.796875l-1.640625 -0.296875q0.296875 -1.640625 1.359375 -2.546875q1.0625 -0.90625 2.65625 -0.90625q1.09375 0 2.0 0.46875q0.921875 0.46875 1.40625 1.28125q0.5 0.8125 0.5 1.71875q0 0.859375 -0.46875 1.578125q-0.46875 0.703125 -1.375 1.125q1.1875 0.28125 1.84375 1.140625q0.65625 0.859375 0.65625 2.15625q0 1.734375 -1.28125 2.953125q-1.265625 1.21875 -3.21875 1.21875q-1.765625 0 -2.921875 -1.046875q-1.15625 -1.046875 -1.328125 -2.71875z" fill-rule="nonzero"/><path fill="#cfe2f3" d="m242.1181 404.89764l0 0c0 -10.88916 8.418457 -19.716553 18.803162 -19.716553l0 0c4.986908 0 9.769562 2.0772705 13.295837 5.7748413c3.5262756 3.6975708 5.5072937 8.712555 5.5072937 13.941711l0 0c0 10.88913 -8.418457 19.716522 -18.803131 19.716522l0 0c-10.384705 0 -18.803162 -8.827393 -18.803162 -19.716522z" fill-rule="evenodd"/><path stroke="#ff0000" stroke-width="1.0" stroke-linejoin="round" stroke-linecap="butt" d="m242.1181 404.89764l0 0c0 -10.88916 8.418457 -19.716553 18.803162 -19.716553l0 0c4.986908 0 9.769562 2.0772705 13.295837 5.7748413c3.5262756 3.6975708 5.5072937 8.712555 5.5072937 13.941711l0 0c0 10.88913 -8.418457 19.716522 -18.803131 19.716522l0 0c-10.384705 0 -18.803162 -8.827393 -18.803162 -19.716522z" fill-rule="evenodd"/><path fill="#000000" d="m263.57855 411.81763l-1.640625 0l0 -10.453125q-0.59375 0.5625 -1.5625 1.140625q-0.953125 0.5625 -1.71875 0.84375l0 -1.59375q1.375 -0.640625 2.40625 -1.5625q1.03125 -0.921875 1.453125 -1.78125l1.0625 0l0 13.40625z" fill-rule="nonzero"/><path fill="#cfe2f3" d="m283.4462 404.89764l0 0c0 -10.88916 8.418457 -19.716553 18.803131 -19.716553l0 0c4.986908 0 9.769562 2.0772705 13.295837 5.7748413c3.5262756 3.6975708 5.507324 8.712555 5.507324 13.941711l0 0c0 10.88913 -8.418457 19.716522 -18.803162 19.716522l0 0c-10.384674 0 -18.803131 -8.827393 -18.803131 -19.716522z" fill-rule="evenodd"/><path stroke="#ff0000" stroke-width="1.0" stroke-linejoin="round" stroke-linecap="butt" d="m283.4462 404.89764l0 0c0 -10.88916 8.418457 -19.716553 18.803131 -19.716553l0 0c4.986908 0 9.769562 2.0772705 13.295837 5.7748413c3.5262756 3.6975708 5.507324 8.712555 5.507324 13.941711l0 0c0 10.88913 -8.418457 19.716522 -18.803162 19.716522l0 0c-10.384674 0 -18.803131 -8.827393 -18.803131 -19.716522z" fill-rule="evenodd"/><path fill="#000000" d="m307.34415 410.2395l0 1.578125l-8.828125 0q-0.015625 -0.59375 0.1875 -1.140625q0.34375 -0.90625 1.078125 -1.78125q0.75 -0.875 2.15625 -2.015625q2.171875 -1.78125 2.9375 -2.828125q0.765625 -1.046875 0.765625 -1.96875q0 -0.984375 -0.703125 -1.640625q-0.6875 -0.671875 -1.8125 -0.671875q-1.1875 0 -1.90625 0.71875q-0.703125 0.703125 -0.703125 1.953125l-1.6875 -0.171875q0.171875 -1.890625 1.296875 -2.875q1.140625 -0.984375 3.03125 -0.984375q1.921875 0 3.046875 1.0625q1.125 1.0625 1.125 2.640625q0 0.796875 -0.328125 1.578125q-0.328125 0.78125 -1.09375 1.640625q-0.75 0.84375 -2.53125 2.34375q-1.46875 1.234375 -1.890625 1.6875q-0.421875 0.4375 -0.6875 0.875l6.546875 0z" fill-rule="nonzero"/><path fill="#cfe2f3" d="m344.03937 401.22833l0 0c0 -10.88913 8.418457 -19.716522 18.803162 -19.716522l0 0c4.986908 0 9.769562 2.0772705 13.295837 5.7748413c3.5262756 3.6975708 5.5072937 8.712555 5.5072937 13.941681l0 0c0 10.88916 -8.418457 19.716553 -18.803131 19.716553l0 0c-10.384705 0 -18.803162 -8.827393 -18.803162 -19.716553z" fill-rule="evenodd"/><path stroke="#ff0000" stroke-width="1.0" stroke-linejoin="round" stroke-linecap="butt" d="m344.03937 401.22833l0 0c0 -10.88913 8.418457 -19.716522 18.803162 -19.716522l0 0c4.986908 0 9.769562 2.0772705 13.295837 5.7748413c3.5262756 3.6975708 5.5072937 8.712555 5.5072937 13.941681l0 0c0 10.88916 -8.418457 19.716553 -18.803131 19.716553l0 0c-10.384705 0 -18.803162 -8.827393 -18.803162 -19.716553z" fill-rule="evenodd"/><path fill="#000000" d="m367.93732 406.57022l0 1.578125l-8.828125 0q-0.015625 -0.59375 0.1875 -1.140625q0.34375 -0.90625 1.078125 -1.78125q0.75 -0.875 2.15625 -2.015625q2.171875 -1.78125 2.9375 -2.828125q0.765625 -1.046875 0.765625 -1.96875q0 -0.984375 -0.703125 -1.640625q-0.6875 -0.671875 -1.8125 -0.671875q-1.1875 0 -1.90625 0.71875q-0.703125 0.703125 -0.703125 1.953125l-1.6875 -0.171875q0.171875 -1.890625 1.296875 -2.875q1.140625 -0.984375 3.03125 -0.984375q1.921875 0 3.046875 1.0625q1.125 1.0625 1.125 2.640625q0 0.796875 -0.328125 1.578125q-0.328125 0.78125 -1.09375 1.640625q-0.75 0.84375 -2.53125 2.34375q-1.46875 1.234375 -1.890625 1.6875q-0.421875 0.4375 -0.6875 0.875l6.546875 0z" fill-rule="nonzero"/><path fill="#cfe2f3" d="m381.12335 401.22833l0 0c0 -10.88913 8.418457 -19.716522 18.803162 -19.716522l0 0c4.986908 0 9.769562 2.0772705 13.295837 5.7748413c3.5262756 3.6975708 5.5072937 8.712555 5.5072937 13.941681l0 0c0 10.88916 -8.418457 19.716553 -18.803131 19.716553l0 0c-10.384705 0 -18.803162 -8.827393 -18.803162 -19.716553z" fill-rule="evenodd"/><path stroke="#ff0000" stroke-width="1.0" stroke-linejoin="round" stroke-linecap="butt" d="m381.12335 401.22833l0 0c0 -10.88913 8.418457 -19.716522 18.803162 -19.716522l0 0c4.986908 0 9.769562 2.0772705 13.295837 5.7748413c3.5262756 3.6975708 5.5072937 8.712555 5.5072937 13.941681l0 0c0 10.88916 -8.418457 19.716553 -18.803131 19.716553l0 0c-10.384705 0 -18.803162 -8.827393 -18.803162 -19.716553z" fill-rule="evenodd"/><path fill="#000000" d="m396.41193 404.6171l1.640625 -0.21875q0.28125 1.40625 0.953125 2.015625q0.6875 0.609375 1.65625 0.609375q1.15625 0 1.953125 -0.796875q0.796875 -0.796875 0.796875 -1.984375q0 -1.125 -0.734375 -1.859375q-0.734375 -0.734375 -1.875 -0.734375q-0.46875 0 -1.15625 0.171875l0.1875 -1.4375q0.15625 0.015625 0.265625 0.015625q1.046875 0 1.875 -0.546875q0.84375 -0.546875 0.84375 -1.671875q0 -0.90625 -0.609375 -1.5q-0.609375 -0.59375 -1.578125 -0.59375q-0.953125 0 -1.59375 0.609375q-0.640625 0.59375 -0.8125 1.796875l-1.640625 -0.296875q0.296875 -1.640625 1.359375 -2.546875q1.0625 -0.90625 2.65625 -0.90625q1.09375 0 2.0 0.46875q0.921875 0.46875 1.40625 1.28125q0.5 0.8125 0.5 1.71875q0 0.859375 -0.46875 1.578125q-0.46875 0.703125 -1.375 1.125q1.1875 0.28125 1.84375 1.140625q0.65625 0.859375 0.65625 2.15625q0 1.734375 -1.28125 2.953125q-1.265625 1.21875 -3.21875 1.21875q-1.765625 0 -2.921875 -1.046875q-1.15625 -1.046875 -1.328125 -2.71875z" fill-rule="nonzero"/><path fill="#cfe2f3" d="m434.937 401.22833l0 0c0 -10.88913 8.418457 -19.716522 18.803131 -19.716522l0 0c4.986908 0 9.769562 2.0772705 13.295837 5.7748413c3.5262756 3.6975708 5.507324 8.712555 5.507324 13.941681l0 0c0 10.88916 -8.418457 19.716553 -18.803162 19.716553l0 0c-10.384674 0 -18.803131 -8.827393 -18.803131 -19.716553z" fill-rule="evenodd"/><path stroke="#ff0000" stroke-width="1.0" stroke-linejoin="round" stroke-linecap="butt" d="m434.937 401.22833l0 0c0 -10.88913 8.418457 -19.716522 18.803131 -19.716522l0 0c4.986908 0 9.769562 2.0772705 13.295837 5.7748413c3.5262756 3.6975708 5.507324 8.712555 5.507324 13.941681l0 0c0 10.88916 -8.418457 19.716553 -18.803162 19.716553l0 0c-10.384674 0 -18.803131 -8.827393 -18.803131 -19.716553z" fill-rule="evenodd"/><path fill="#000000" d="m456.39746 408.14835l-1.640625 0l0 -10.453125q-0.59375 0.5625 -1.5625 1.140625q-0.953125 0.5625 -1.71875 0.84375l0 -1.59375q1.375 -0.640625 2.40625 -1.5625q1.03125 -0.921875 1.453125 -1.78125l1.0625 0l0 13.40625z" fill-rule="nonzero"/><path fill="#cfe2f3" d="m476.2651 401.22833l0 0c0 -10.88913 8.418457 -19.716522 18.803131 -19.716522l0 0c4.986908 0 9.769562 2.0772705 13.295837 5.7748413c3.5262756 3.6975708 5.507324 8.712555 5.507324 13.941681l0 0c0 10.88916 -8.418457 19.716553 -18.803162 19.716553l0 0c-10.384674 0 -18.803131 -8.827393 -18.803131 -19.716553z" fill-rule="evenodd"/><path stroke="#ff0000" stroke-width="1.0" stroke-linejoin="round" stroke-linecap="butt" d="m476.2651 401.22833l0 0c0 -10.88913 8.418457 -19.716522 18.803131 -19.716522l0 0c4.986908 0 9.769562 2.0772705 13.295837 5.7748413c3.5262756 3.6975708 5.507324 8.712555 5.507324 13.941681l0 0c0 10.88916 -8.418457 19.716553 -18.803162 19.716553l0 0c-10.384674 0 -18.803131 -8.827393 -18.803131 -19.716553z" fill-rule="evenodd"/><path fill="#000000" d="m500.16302 406.57022l0 1.578125l-8.828125 0q-0.015625 -0.59375 0.1875 -1.140625q0.34375 -0.90625 1.078125 -1.78125q0.75 -0.875 2.15625 -2.015625q2.171875 -1.78125 2.9375 -2.828125q0.765625 -1.046875 0.765625 -1.96875q0 -0.984375 -0.703125 -1.640625q-0.6875 -0.671875 -1.8125 -0.671875q-1.1875 0 -1.90625 0.71875q-0.703125 0.703125 -0.703125 1.953125l-1.6875 -0.171875q0.171875 -1.890625 1.296875 -2.875q1.140625 -0.984375 3.03125 -0.984375q1.921875 0 3.046875 1.0625q1.125 1.0625 1.125 2.640625q0 0.796875 -0.328125 1.578125q-0.328125 0.78125 -1.09375 1.640625q-0.75 0.84375 -2.53125 2.34375q-1.46875 1.234375 -1.890625 1.6875q-0.421875 0.4375 -0.6875 0.875l6.546875 0z" fill-rule="nonzero"/><path fill="#cfe2f3" d="m525.83466 404.89764l0 0c0 -10.88916 8.418457 -19.716553 18.803162 -19.716553l0 0c4.9868774 0 9.769531 2.0772705 13.295837 5.7748413c3.526245 3.6975708 5.507263 8.712555 5.507263 13.941711l0 0c0 10.88913 -8.418457 19.716522 -18.8031 19.716522l0 0c-10.384705 0 -18.803162 -8.827393 -18.803162 -19.716522z" fill-rule="evenodd"/><path stroke="#ff0000" stroke-width="1.0" stroke-linejoin="round" stroke-linecap="butt" d="m525.83466 404.89764l0 0c0 -10.88916 8.418457 -19.716553 18.803162 -19.716553l0 0c4.9868774 0 9.769531 2.0772705 13.295837 5.7748413c3.526245 3.6975708 5.507263 8.712555 5.507263 13.941711l0 0c0 10.88913 -8.418457 19.716522 -18.8031 19.716522l0 0c-10.384705 0 -18.803162 -8.827393 -18.803162 -19.716522z" fill-rule="evenodd"/><path fill="#000000" d="m549.7326 410.2395l0 1.578125l-8.828125 0q-0.015625 -0.59375 0.1875 -1.140625q0.34375 -0.90625 1.078125 -1.78125q0.75 -0.875 2.15625 -2.015625q2.171875 -1.78125 2.9375 -2.828125q0.765625 -1.046875 0.765625 -1.96875q0 -0.984375 -0.703125 -1.640625q-0.6875 -0.671875 -1.8125 -0.671875q-1.1875 0 -1.90625 0.71875q-0.703125 0.703125 -0.703125 1.953125l-1.6875 -0.171875q0.171875 -1.890625 1.296875 -2.875q1.140625 -0.984375 3.03125 -0.984375q1.921875 0 3.046875 1.0625q1.125 1.0625 1.125 2.640625q0 0.796875 -0.328125 1.578125q-0.328125 0.78125 -1.09375 1.640625q-0.75 0.84375 -2.53125 2.34375q-1.46875 1.234375 -1.890625 1.6875q-0.421875 0.4375 -0.6875 0.875l6.546875 0z" fill-rule="nonzero"/><path fill="#cfe2f3" d="m562.91864 404.89764l0 0c0 -10.88916 8.418457 -19.716553 18.803162 -19.716553l0 0c4.9868774 0 9.769531 2.0772705 13.295837 5.7748413c3.526245 3.6975708 5.507324 8.712555 5.507324 13.941711l0 0c0 10.88913 -8.418457 19.716522 -18.803162 19.716522l0 0c-10.384705 0 -18.803162 -8.827393 -18.803162 -19.716522z" fill-rule="evenodd"/><path stroke="#ff0000" stroke-width="1.0" stroke-linejoin="round" stroke-linecap="butt" d="m562.91864 404.89764l0 0c0 -10.88916 8.418457 -19.716553 18.803162 -19.716553l0 0c4.9868774 0 9.769531 2.0772705 13.295837 5.7748413c3.526245 3.6975708 5.507324 8.712555 5.507324 13.941711l0 0c0 10.88913 -8.418457 19.716522 -18.803162 19.716522l0 0c-10.384705 0 -18.803162 -8.827393 -18.803162 -19.716522z" fill-rule="evenodd"/><path fill="#000000" d="m578.2072 408.28638l1.640625 -0.21875q0.28125 1.40625 0.953125 2.015625q0.6875 0.609375 1.65625 0.609375q1.15625 0 1.953125 -0.796875q0.796875 -0.796875 0.796875 -1.984375q0 -1.125 -0.734375 -1.859375q-0.734375 -0.734375 -1.875 -0.734375q-0.46875 0 -1.15625 0.171875l0.1875 -1.4375q0.15625 0.015625 0.265625 0.015625q1.046875 0 1.875 -0.546875q0.84375 -0.546875 0.84375 -1.671875q0 -0.90625 -0.609375 -1.5q-0.609375 -0.59375 -1.578125 -0.59375q-0.953125 0 -1.59375 0.609375q-0.640625 0.59375 -0.8125 1.796875l-1.640625 -0.296875q0.296875 -1.640625 1.359375 -2.546875q1.0625 -0.90625 2.65625 -0.90625q1.09375 0 2.0 0.46875q0.921875 0.46875 1.40625 1.28125q0.5 0.8125 0.5 1.71875q0 0.859375 -0.46875 1.578125q-0.46875 0.703125 -1.375 1.125q1.1875 0.28125 1.84375 1.140625q0.65625 0.859375 0.65625 2.15625q0 1.734375 -1.28125 2.953125q-1.265625 1.21875 -3.21875 1.21875q-1.765625 0 -2.921875 -1.046875q-1.15625 -1.046875 -1.328125 -2.71875z" fill-rule="nonzero"/><path fill="#cfe2f3" d="m622.14435 401.22833l0 0c0 -10.88913 8.418457 -19.716522 18.803162 -19.716522l0 0c4.9868774 0 9.769531 2.0772705 13.295837 5.7748413c3.526245 3.6975708 5.507324 8.712555 5.507324 13.941681l0 0c0 10.88916 -8.418457 19.716553 -18.803162 19.716553l0 0c-10.384705 0 -18.803162 -8.827393 -18.803162 -19.716553z" fill-rule="evenodd"/><path stroke="#ff0000" stroke-width="1.0" stroke-linejoin="round" stroke-linecap="butt" d="m622.14435 401.22833l0 0c0 -10.88913 8.418457 -19.716522 18.803162 -19.716522l0 0c4.9868774 0 9.769531 2.0772705 13.295837 5.7748413c3.526245 3.6975708 5.507324 8.712555 5.507324 13.941681l0 0c0 10.88916 -8.418457 19.716553 -18.803162 19.716553l0 0c-10.384705 0 -18.803162 -8.827393 -18.803162 -19.716553z" fill-rule="evenodd"/><path fill="#000000" d="m643.6048 408.14835l-1.640625 0l0 -10.453125q-0.59375 0.5625 -1.5625 1.140625q-0.953125 0.5625 -1.71875 0.84375l0 -1.59375q1.375 -0.640625 2.40625 -1.5625q1.03125 -0.921875 1.453125 -1.78125l1.0625 0l0 13.40625z" fill-rule="nonzero"/><path fill="#cfe2f3" d="m664.2126 401.22833l0 0c0 -10.88913 8.418457 -19.716522 18.803162 -19.716522l0 0c4.9868774 0 9.769531 2.0772705 13.295837 5.7748413c3.526245 3.6975708 5.507324 8.712555 5.507324 13.941681l0 0c0 10.88916 -8.418457 19.716553 -18.803162 19.716553l0 0c-10.384705 0 -18.803162 -8.827393 -18.803162 -19.716553z" fill-rule="evenodd"/><path stroke="#ff0000" stroke-width="1.0" stroke-linejoin="round" stroke-linecap="butt" d="m664.2126 401.22833l0 0c0 -10.88913 8.418457 -19.716522 18.803162 -19.716522l0 0c4.9868774 0 9.769531 2.0772705 13.295837 5.7748413c3.526245 3.6975708 5.507324 8.712555 5.507324 13.941681l0 0c0 10.88916 -8.418457 19.716553 -18.803162 19.716553l0 0c-10.384705 0 -18.803162 -8.827393 -18.803162 -19.716553z" fill-rule="evenodd"/><path fill="#000000" d="m679.50116 404.6171l1.640625 -0.21875q0.28125 1.40625 0.953125 2.015625q0.6875 0.609375 1.65625 0.609375q1.15625 0 1.953125 -0.796875q0.796875 -0.796875 0.796875 -1.984375q0 -1.125 -0.734375 -1.859375q-0.734375 -0.734375 -1.875 -0.734375q-0.46875 0 -1.15625 0.171875l0.1875 -1.4375q0.15625 0.015625 0.265625 0.015625q1.046875 0 1.875 -0.546875q0.84375 -0.546875 0.84375 -1.671875q0 -0.90625 -0.609375 -1.5q-0.609375 -0.59375 -1.578125 -0.59375q-0.953125 0 -1.59375 0.609375q-0.640625 0.59375 -0.8125 1.796875l-1.640625 -0.296875q0.296875 -1.640625 1.359375 -2.546875q1.0625 -0.90625 2.65625 -0.90625q1.09375 0 2.0 0.46875q0.921875 0.46875 1.40625 1.28125q0.5 0.8125 0.5 1.71875q0 0.859375 -0.46875 1.578125q-0.46875 0.703125 -1.375 1.125q1.1875 0.28125 1.84375 1.140625q0.65625 0.859375 0.65625 2.15625q0 1.734375 -1.28125 2.953125q-1.265625 1.21875 -3.21875 1.21875q-1.765625 0 -2.921875 -1.046875q-1.15625 -1.046875 -1.328125 -2.71875z" fill-rule="nonzero"/><path fill="#000000" fill-opacity="0.0" d="m306.79004 360.0l-32.566956 30.960632" fill-rule="evenodd"/><path stroke="#ff0000" stroke-width="1.0" stroke-linejoin="round" stroke-linecap="butt" d="m306.79004 360.0l-28.218414 26.826569" fill-rule="evenodd"/><path fill="#ff0000" stroke="#ff0000" stroke-width="1.0" stroke-linecap="butt" d="m277.43356 385.6295l-2.15094 4.323883l4.427063 -1.9296875z" fill-rule="evenodd"/><path fill="#000000" fill-opacity="0.0" d="m306.79004 360.0l8.75589 30.960632" fill-rule="evenodd"/><path stroke="#ff0000" stroke-width="1.0" stroke-linejoin="round" stroke-linecap="butt" d="m306.79004 360.0l7.1230774 25.187103" fill-rule="evenodd"/><path fill="#ff0000" stroke="#ff0000" stroke-width="1.0" stroke-linecap="butt" d="m312.32373 385.63657l2.8243713 3.917328l0.35443115 -4.8163147z" fill-rule="evenodd"/><path fill="#000000" fill-opacity="0.0" d="m426.49344 205.44357l0 33.039368" fill-rule="evenodd"/><path stroke="#000000" stroke-width="1.0" stroke-linejoin="round" stroke-linecap="butt" d="m426.49344 205.44357l0 27.039368" fill-rule="evenodd"/><path fill="#000000" stroke="#000000" stroke-width="1.0" stroke-linecap="butt" d="m424.8417 232.48294l1.6517334 4.538101l1.6517334 -4.538101z" fill-rule="evenodd"/><path fill="#000000" fill-opacity="0.0" d="m426.49344 277.90552l-21.165344 42.677155" fill-rule="evenodd"/><path stroke="#ff0000" stroke-width="1.0" stroke-linejoin="round" stroke-linecap="butt" d="m426.49344 277.90552l-18.499542 37.30188" fill-rule="evenodd"/><path fill="#ff0000" stroke="#ff0000" stroke-width="1.0" stroke-linecap="butt" d="m406.51416 314.47354l-0.53656006 4.7994385l3.4960327 -3.3316956z" fill-rule="evenodd"/><path fill="#000000" fill-opacity="0.0" d="m392.04276 354.22516l-29.196869 27.275604" fill-rule="evenodd"/><path stroke="#ff0000" stroke-width="1.0" stroke-linejoin="round" stroke-linecap="butt" d="m392.04272 354.22516l-24.812408 23.179657" fill-rule="evenodd"/><path fill="#ff0000" stroke="#ff0000" stroke-width="1.0" stroke-linecap="butt" d="m366.10275 376.1978l-2.1885986 4.304962l4.4437256 -1.8909912z" fill-rule="evenodd"/><path fill="#000000" fill-opacity="0.0" d="m405.3386 360.0l7.873993 27.275604" fill-rule="evenodd"/><path stroke="#ff0000" stroke-width="1.0" stroke-linejoin="round" stroke-linecap="butt" d="m405.3386 360.0l6.209839 21.510986" fill-rule="evenodd"/><path fill="#ff0000" stroke="#ff0000" stroke-width="1.0" stroke-linecap="butt" d="m409.96152 381.96912l2.8456116 3.9019165l0.32824707 -4.8181763z" fill-rule="evenodd"/><path fill="#000000" fill-opacity="0.0" d="m439.78928 272.13068l24.314972 48.44095" fill-rule="evenodd"/><path stroke="#000000" stroke-width="1.0" stroke-linejoin="round" stroke-linecap="butt" d="m439.78928 272.13068l21.623322 43.078583" fill-rule="evenodd"/><path fill="#000000" stroke="#000000" stroke-width="1.0" stroke-linecap="butt" d="m459.9364 315.95023l3.512024 3.3148499l-0.55963135 -4.796814z" fill-rule="evenodd"/><path fill="#000000" fill-opacity="0.0" d="m464.09973 360.0l-10.362213 21.51181" fill-rule="evenodd"/><path stroke="#ff0000" stroke-width="1.0" stroke-linejoin="round" stroke-linecap="butt" d="m464.09973 360.0l-7.758362 16.106262" fill-rule="evenodd"/><path fill="#ff0000" stroke="#ff0000" stroke-width="1.0" stroke-linecap="butt" d="m454.8533 375.38947l-0.48135376 4.8052673l3.4575195 -3.3716736z" fill-rule="evenodd"/><path fill="#000000" fill-opacity="0.0" d="m477.39557 354.22516l17.669281 27.275604" fill-rule="evenodd"/><path stroke="#ff0000" stroke-width="1.0" stroke-linejoin="round" stroke-linecap="butt" d="m477.3956 354.22516l14.407135 22.239868" fill-rule="evenodd"/><path fill="#ff0000" stroke="#ff0000" stroke-width="1.0" stroke-linecap="butt" d="m490.41644 377.36307l3.8536072 2.9107056l-1.0810547 -4.706787z" fill-rule="evenodd"/><path fill="#000000" fill-opacity="0.0" d="m451.13638 198.46025l63.3071 45.795288" fill-rule="evenodd"/><path stroke="#000000" stroke-width="1.0" stroke-linejoin="round" stroke-linecap="butt" d="m451.1364 198.46027l58.44568 42.278625" fill-rule="evenodd"/><path fill="#000000" stroke="#000000" stroke-width="1.0" stroke-linecap="butt" d="m508.61398 242.07718l4.64505 1.321518l-2.7088318 -3.9980927z" fill-rule="evenodd"/><path fill="#000000" fill-opacity="0.0" d="m527.7507 277.90552l11.590515 37.102356" fill-rule="evenodd"/><path stroke="#ff0000" stroke-width="1.0" stroke-linejoin="round" stroke-linecap="butt" d="m527.7507 277.90552l9.801453 31.375305" fill-rule="evenodd"/><path fill="#ff0000" stroke="#ff0000" stroke-width="1.0" stroke-linecap="butt" d="m535.9755 309.77335l2.9297485 3.8391418l0.2234497 -4.824188z" fill-rule="evenodd"/><path fill="#000000" fill-opacity="0.0" d="m539.3517 354.43832l5.291382 30.740143" fill-rule="evenodd"/><path stroke="#ff0000" stroke-width="1.0" stroke-linejoin="round" stroke-linecap="butt" d="m539.3517 354.43832l4.2735596 24.827087" fill-rule="evenodd"/><path fill="#ff0000" stroke="#ff0000" stroke-width="1.0" stroke-linecap="butt" d="m541.99744 379.54562l2.397644 4.1921387l0.85791016 -4.752533z" fill-rule="evenodd"/><path fill="#000000" fill-opacity="0.0" d="m552.6475 348.66348l29.070862 36.503937" fill-rule="evenodd"/><path stroke="#ff0000" stroke-width="1.0" stroke-linejoin="round" stroke-linecap="butt" d="m552.6476 348.66348l25.333069 31.810425" fill-rule="evenodd"/><path fill="#ff0000" stroke="#ff0000" stroke-width="1.0" stroke-linecap="butt" d="m576.68854 381.50287l4.1191406 2.5209656l-1.5349731 -4.578888z" fill-rule="evenodd"/><path fill="#000000" fill-opacity="0.0" d="m541.0465 272.13068l55.08661 54.204712" fill-rule="evenodd"/><path stroke="#ff0000" stroke-width="1.0" stroke-linejoin="round" stroke-linecap="butt" d="m541.0465 272.13068l50.809875 49.99646" fill-rule="evenodd"/><path fill="#ff0000" stroke="#ff0000" stroke-width="1.0" stroke-linecap="butt" d="m590.6979 323.30447l4.3931885 2.0055847l-2.0761719 -4.36026z" fill-rule="evenodd"/><path fill="#000000" fill-opacity="0.0" d="m622.7184 354.22516l4.9448853 33.07086" fill-rule="evenodd"/><path stroke="#ff0000" stroke-width="1.0" stroke-linejoin="round" stroke-linecap="butt" d="m622.71844 354.22516l4.057617 27.13684" fill-rule="evenodd"/><path fill="#ff0000" stroke="#ff0000" stroke-width="1.0" stroke-linecap="butt" d="m625.14246 381.60623l2.3046875 4.2439575l0.9624634 -4.7324524z" fill-rule="evenodd"/><path fill="#000000" fill-opacity="0.0" d="m628.2257 340.28348l54.80316 41.228333" fill-rule="evenodd"/><path stroke="#ff0000" stroke-width="1.0" stroke-linejoin="round" stroke-linecap="butt" d="m628.2257 340.28348l50.008484 37.621307" fill-rule="evenodd"/><path fill="#ff0000" stroke="#ff0000" stroke-width="1.0" stroke-linecap="butt" d="m677.2412 379.2247l4.619446 1.4082642l-2.633484 -4.048126z" fill-rule="evenodd"/><path fill="#000000" fill-opacity="0.0" d="m311.9404 272.13068l-61.039383 54.204712" fill-rule="evenodd"/><path stroke="#000000" stroke-width="1.0" stroke-linejoin="round" stroke-linecap="butt" d="m311.9404 272.13068l-56.55301 50.220703" fill-rule="evenodd"/><path fill="#000000" stroke="#000000" stroke-width="1.0" stroke-linecap="butt" d="m254.29063 321.11633l-2.2965088 4.248352l4.490036 -1.7782593z" fill-rule="evenodd"/><path fill="#000000" fill-opacity="0.0" d="m237.59317 360.0l-18.64566 30.960632" fill-rule="evenodd"/><path stroke="#000000" stroke-width="1.0" stroke-linejoin="round" stroke-linecap="butt" d="m237.59317 360.0l-15.550232 25.82074" fill-rule="evenodd"/><path fill="#000000" stroke="#000000" stroke-width="1.0" stroke-linecap="butt" d="m220.62799 384.96863l-0.9262848 4.7396545l3.7561798 -3.0354004z" fill-rule="evenodd"/><path fill="#000000" fill-opacity="0.0" d="m218.79002 340.28348l-55.181107 44.91336" fill-rule="evenodd"/><path stroke="#ff0000" stroke-width="1.0" stroke-linejoin="round" stroke-linecap="butt" d="m218.79002 340.28348l-50.527664 41.125793" fill-rule="evenodd"/><path fill="#ff0000" stroke="#ff0000" stroke-width="1.0" stroke-linecap="butt" d="m167.21968 380.12827l-2.476944 4.145752l4.5622864 -1.5836792z" fill-rule="evenodd"/></g></svg>